<?xml version="1.0" encoding="UTF-8"?>
<svg xmlns="http://www.w3.org/2000/svg" xmlns:xlink="http://www.w3.org/1999/xlink" viewBox="0 0 50 50" width="50px" height="50px">
<g id="surface58759325">
<path style=" stroke:none;fill-rule:nonzero;fill:rgb(96.078432%,73.725492%,20.392157%);fill-opacity:1;" d="M 49.226562 25 C 49.226562 11.621094 38.378906 0.773438 25 0.773438 C 11.621094 0.773438 0.773438 11.621094 0.773438 25 C 0.773438 38.378906 11.621094 49.226562 25 49.226562 C 38.378906 49.226562 49.226562 38.378906 49.226562 25 Z M 49.226562 25 "/>
<path style=" stroke:none;fill-rule:nonzero;fill:rgb(100%,100%,100%);fill-opacity:1;" d="M 40.242188 33.777344 C 40.242188 34.511719 39.648438 35.105469 38.914062 35.105469 L 11.082031 35.105469 C 10.351562 35.105469 9.753906 34.511719 9.753906 33.777344 L 9.753906 16.222656 C 9.753906 15.488281 10.351562 14.894531 11.082031 14.894531 L 38.925781 14.894531 C 39.65625 14.894531 40.253906 15.488281 40.253906 16.222656 L 40.253906 33.777344 Z M 40.242188 33.777344 "/>
<path style=" stroke:none;fill-rule:nonzero;fill:rgb(96.078432%,73.725492%,20.392157%);fill-opacity:1;" d="M 33.535156 24.132812 L 21.511719 16.75 C 21.179688 16.542969 20.753906 16.535156 20.417969 16.730469 C 20.078125 16.925781 19.863281 17.285156 19.863281 17.675781 L 19.863281 32.382812 C 19.863281 32.773438 20.078125 33.136719 20.417969 33.332031 C 20.585938 33.417969 20.761719 33.464844 20.945312 33.464844 C 21.144531 33.464844 21.335938 33.410156 21.511719 33.308594 L 33.535156 25.988281 C 33.855469 25.792969 34.054688 25.441406 34.054688 25.058594 C 34.054688 24.675781 33.859375 24.324219 33.535156 24.128906 Z M 33.535156 24.132812 "/>
</g>
</svg>
